<svg width="35" height="33" viewBox="0 0 35 33" fill="none" xmlns="http://www.w3.org/2000/svg">
<path d="M8.78182 19.006C10.2242 19.4344 11.3273 20.2483 12.0909 21.4478C12.9394 22.5616 13.3636 23.9324 13.3636 25.5602C13.3636 27.6165 12.7273 29.2872 11.4545 30.5723C10.1818 31.8574 8.61212 32.5 6.74545 32.5C4.70909 32.5 3.05455 31.8574 1.78182 30.5723C0.593939 29.2015 0 27.5308 0 25.5602C0 24.5321 0.0848485 23.5469 0.254545 22.6044C0.509091 21.5763 0.975757 20.1198 1.65454 18.2349L7 0.5H13.1091L8.78182 19.006ZM30.4182 19.006C31.8606 19.4344 32.9636 20.2483 33.7273 21.4478C34.5758 22.5616 35 23.9324 35 25.5602C35 27.6165 34.3636 29.2872 33.0909 30.5723C31.8182 31.8574 30.2485 32.5 28.3818 32.5C26.3455 32.5 24.6909 31.8574 23.4182 30.5723C22.2303 29.2015 21.6364 27.5308 21.6364 25.5602C21.6364 24.5321 21.7212 23.5469 21.8909 22.6044C22.1455 21.5763 22.6121 20.1198 23.2909 18.2349L28.6364 0.5H34.7455L30.4182 19.006Z" fill="#50545B"/>
</svg>
